<?xml version="1.0" encoding="UTF-8" standalone="no"?>
<svg id="logo" width="1006" height="169" viewBox="0 0 1006 169" fill="none" xmlns="http://www.w3.org/2000/svg">
  <g id="icon">
    <path d="M148.112 150.986C159.606 155.763 172.529 155.785 184.038 151.047C195.548 146.309 204.702 137.199 209.485 125.721L254.375 18.0134C242.882 13.2362 229.959 13.2142 218.449 17.9523C206.939 22.6904 197.786 31.8003 193.002 43.2782L148.112 150.986Z" fill="url(#paint0_linear)"/>
    <path d="M73.8789 150.988C85.3724 155.766 98.2954 155.788 109.805 151.05C121.315 146.311 130.468 137.201 135.252 125.724L180.142 18.0162C168.649 13.239 155.726 13.217 144.216 17.9551C132.706 22.6931 123.553 31.8031 118.769 43.281L73.8789 150.988Z" fill="url(#paint1_linear)"/>
    <g id="darker">
      <path d="M9.18199 130.636C11.6709 124.669 13.7057 118.541 15.6676 112.396C16.6319 109.272 18.2278 106.38 20.3567 103.897C22.4855 101.415 25.1019 99.3947 28.044 97.9628C30.9861 96.5308 34.1912 95.7171 37.4609 95.572C40.7306 95.427 43.9953 95.9537 47.0529 97.1196C50.1106 98.2855 52.896 100.066 55.2369 102.35C57.5778 104.634 59.4242 107.374 60.6619 110.4C61.8996 113.426 62.5023 116.673 62.4326 119.941C62.3628 123.208 61.6222 126.427 60.2566 129.397C59.3419 131.465 58.1411 133.395 56.6895 135.129C50.4653 143.614 41.5646 149.762 31.4186 152.584C21.2726 155.407 10.471 154.74 0.750626 150.69L9.18199 130.636Z" fill="url(#paint2_linear)"/>
      <path d="M97.0919 38.466C94.6031 44.4327 92.5682 50.5615 90.6063 56.7064C89.642 59.8298 88.0461 62.7223 85.9173 65.2049C83.7884 67.6875 81.172 69.7073 78.2299 71.1393C75.2878 72.5713 72.0827 73.385 68.813 73.53C65.5433 73.675 62.2786 73.1483 59.221 71.9825C56.1634 70.8166 53.3779 69.0364 51.037 66.752C48.6962 64.4677 46.8497 61.7279 45.612 58.7021C44.3743 55.6764 43.7716 52.4291 43.8414 49.1614C43.9111 45.8937 44.6517 42.675 46.0173 39.7046C46.9321 37.6368 48.1328 35.7073 49.5845 33.9726C55.8086 25.4878 64.7093 19.3399 74.8553 16.5176C85.0013 13.6953 95.8029 14.3625 105.523 18.412L97.0919 38.466Z" fill="url(#paint3_linear)"/>
    </g>
  </g>
  <g id="name">
    <path d="M290.167 126.778V47.0607H308.266L333.417 87.0303L358.734 47.0607H376.612V126.778H360.122V73.8554L333.861 115.048H332.695L306.656 73.8554V126.778H290.167Z" fill="#0ca4a5"/>
    <path d="M388.826 109.489C388.826 104.041 390.806 99.742 394.767 96.5919C398.727 93.4047 403.65 91.8111 409.535 91.8111C414.495 91.8111 419.103 92.96 423.36 95.2577V91.3664C423.36 89.0316 422.49 87.1044 420.75 85.585C419.011 84.0655 416.364 83.3057 412.811 83.3057C405.815 83.3057 398.875 85.4923 391.991 89.8654V74.3001C398.912 70.9647 406.352 69.2969 414.31 69.2969C422.12 69.2969 428.227 71.2241 432.632 75.0784C437.073 78.9326 439.294 83.6764 439.294 89.3095V126.778H424.526V123.109C422.712 124.665 420.436 125.944 417.697 126.944C414.958 127.982 411.96 128.501 408.702 128.501C402.817 128.501 398.024 126.833 394.323 123.498C390.658 120.125 388.826 115.456 388.826 109.489ZM404.372 109.044C404.372 111.305 405.205 113.084 406.87 114.381C408.573 115.678 410.701 116.327 413.255 116.327C415.291 116.327 417.197 115.937 418.974 115.159C420.75 114.344 422.212 113.399 423.36 112.324V105.598C422.286 104.708 420.843 103.948 419.029 103.318C417.215 102.651 415.291 102.318 413.255 102.318C410.701 102.318 408.573 102.911 406.87 104.097C405.205 105.283 404.372 106.932 404.372 109.044Z" fill="#0ca4a5"/>
    <path d="M446.179 84.3064V71.1314H456.172V55.9552L471.496 50.285V71.1314H486.206V84.3064H471.496V106.654C471.496 111.657 474.124 114.158 479.38 114.158C480.564 114.158 482.082 113.918 483.932 113.436V127.222C481.045 128.075 477.862 128.501 474.383 128.501C471.792 128.501 469.386 128.149 467.165 127.445C464.981 126.778 463.001 125.74 461.225 124.332C459.485 122.923 458.115 121.033 457.116 118.661C456.117 116.289 455.617 113.528 455.617 110.378V84.3064H446.179Z" fill="#0ca4a5"/>
    <path d="M486.206 .734 50.2848V71.1313H780.171V84.3062H767.734V106.654C767.734 111.657 770.362 114.158 775.618 114.158C776.803 114.158 778.32 113.917 780.171 113.436V127.222C777.284 128.074 774.101 128.501 770.621 128.501C768.031 128.501 765.625 128.149 763.404 127.444C761.22 126.777 759.24 125.74 757.463 124.331C755.724 122.923 754.354 121.033 753.355 118.661C752.355 116.289 751.856 113.528 751.856 110.378V84.3062H742.417Z" fill="#0ca4a5"/>
    <path d="M788.11 50.2848C788.11 47.3941 789.054 45.0408 790.942 43.2249C792.83 41.4089 795.217 40.5009 798.104 40.5009C800.991 40.5009 803.378 41.4089 805.266 43.2249C807.154 45.0408 808.098 47.3941 808.098 50.2848C808.098 53.1385 807.135 55.4918 805.211 57.3448C803.323 59.1608 800.954 60.0688 798.104 60.0688C795.254 60.0688 792.867 59.1608 790.942 57.3448C789.054 55.4918 788.11 53.1385 788.11 50.2848ZM790.276 126.777V71.1313H806.154V126.777H790.276Z" fill="#0ca4a5"/>
    <path d="M819.479 126.777V71.1313H835.192V75.5229C839.337 71.3722 844.519 69.2968 850.737 69.2968C853.365 69.2968 855.882 69.7415 858.288 70.631C860.731 71.5204 862.915 72.799 864.839 74.4667C866.764 76.1344 868.282 78.2839 869.392 80.9152C870.54 83.5465 871.113 86.4557 871.113 89.6429V126.777H855.179V93.6454C855.179 90.6806 854.291 88.3088 852.514 86.5299C850.774 84.751 848.553 83.8615 845.851 83.8615C841.78 83.8615 838.301 85.7887 835.414 89.6429V126.777H819.479Z" fill="#0ca4a5"/>
    <path d="M880.219 98.5374C880.219 92.8301 881.477 87.7343 883.994 83.25C886.548 78.7657 889.99 75.3191 894.321 72.9102C898.651 70.5013 903.463 69.2968 908.756 69.2968C917.38 69.2968 924.135 72.0207 929.021 77.4686C933.944 82.8794 936.405 89.9765 936.405 98.7598C936.405 100.687 936.331 102.243 936.183 103.429H896.819C896.967 107.061 898.466 109.952 901.316 112.101C904.166 114.214 907.442 115.27 911.143 115.27C918.324 115.27 925.375 112.991 932.297 108.433V122.219C929.261 124.146 925.967 125.666 922.414 126.777C918.861 127.926 914.549 128.501 909.478 128.501C904.037 128.501 899.132 127.37 894.765 125.11C890.397 122.812 886.881 119.365 884.216 114.77C881.551 110.174 880.219 104.764 880.219 98.5374ZM897.208 92.756H920.36C920.175 89.9023 919.083 87.4749 917.084 85.4736C915.122 83.4724 912.346 82.4718 908.756 82.4718C905.462 82.4718 902.76 83.5094 900.65 85.5848C898.54 87.6602 897.393 90.0506 897.208 92.756Z" fill="#0ca4a5"/>
    <path d="M946.288 126.777V44.2255H962.167V126.777H946.288Z" fill="#0ca4a5"/>
  </g>
  <defs>
  <linearGradient id="paint0_linear" x1="169.78" y1="159.992" x2="232.561" y2="8.94658" gradientUnits="userSpaceOnUse">
  <stop stop-color="#66B3B3"/>
  <stop offset="1" stop-color="#95CACA"/>
  </linearGradient>
  <linearGradient id="paint1_linear" x1="95.547" y1="159.995" x2="158.328" y2="8.94937" gradientUnits="userSpaceOnUse">
  <stop stop-color="#66B3B3"/>
  <stop offset="1" stop-color="#95CACA"/>
  </linearGradient>
  <linearGradient id="paint2_linear" x1="52.6972" y1="105.259" x2="14.1123" y2="154.478" gradientUnits="userSpaceOnUse">
  <stop stop-color="#0CA4A5"/>
  <stop offset="1" stop-color="#097677"/>
  </linearGradient>
  <linearGradient id="paint3_linear" x1="53.5767" y1="63.8427" x2="92.1617" y2="14.6241" gradientUnits="userSpaceOnUse">
  <stop stop-color="#0CA4A5"/>
  <stop offset="1" stop-color="#097677"/>
  </linearGradient>
  </defs>
</svg>
